<svg width="233" height="33" viewBox="0 0 233 33" fill="none" xmlns="http://www.w3.org/2000/svg">
    <path d="M27.1222 21.9002C27.2608 22.9981 27.5789 24.012 28.0818 24.9418C28.5847 25.8716 29.2159 26.6753 29.9856 27.3582C30.7553 28.0411 31.6327 28.5769 32.618 28.9656C33.6032 29.3544 34.65 29.5487 35.7533 29.5487C37.0156 29.5487 38.2215 29.3018 39.3709 28.8028C40.5204 28.309 41.4594 27.6103 42.1829 26.7068C42.7731 26.2655 43.3324 26.1395 43.8661 26.3338C44.1791 26.4389 44.4356 26.67 44.646 27.022C44.8718 27.3424 44.9796 27.7206 44.9693 28.1619C44.959 28.6032 44.7589 29.0024 44.3587 29.3544C43.4248 30.3787 42.2445 31.2455 40.818 31.9441C39.3915 32.6428 37.7032 32.9947 35.7481 32.9947C34.0394 32.9947 32.4333 32.6638 30.94 31.9967C29.4468 31.3348 28.1383 30.426 27.0145 29.2756C25.8907 28.1251 25.003 26.7803 24.3564 25.2412C23.7098 23.702 23.3866 22.0578 23.3866 20.3033C23.3866 18.5488 23.7098 16.9098 24.3564 15.3811C25.003 13.8525 25.8907 12.513 27.0145 11.3625C28.1383 10.2121 29.4468 9.30332 30.94 8.64144C32.4333 7.97955 34.0394 7.6486 35.7481 7.6486C37.4569 7.6486 39.0425 7.97429 40.546 8.63093C42.0495 9.28757 43.3581 10.1858 44.4716 11.3258C45.5851 12.4657 46.4728 13.8052 47.1296 15.3339C47.7865 16.8625 48.1251 18.4962 48.1405 20.2297C48.1405 20.7078 47.9917 21.107 47.689 21.4222C47.3862 21.7426 46.9911 21.9002 46.5087 21.9002H27.1222ZM44.6973 18.9795C44.5742 17.8501 44.2612 16.8047 43.7532 15.8487C43.2452 14.8926 42.5883 14.0626 41.7981 13.3535C41.0079 12.6443 40.0945 12.0927 39.0784 11.6935C38.0624 11.2942 36.9797 11.0946 35.8354 11.0946C34.6911 11.0946 33.5878 11.2995 32.5667 11.704C31.5455 12.1137 30.6424 12.6653 29.8573 13.364C29.0722 14.0626 28.4307 14.8926 27.9381 15.8592C27.4455 16.8257 27.1376 17.8606 27.0196 18.9795H44.7025H44.6973Z"
          fill="#2BC6F4"/>
    <path d="M60.3328 27.1008L68.3686 9.05117C68.5738 8.5889 68.8869 8.27372 69.3025 8.09511C69.7182 7.91651 70.1492 7.92701 70.6008 8.12138C71.0318 8.31574 71.3294 8.63618 71.4936 9.07744C71.6578 9.5187 71.6424 9.97046 71.4526 10.4327L61.9389 31.5029C61.7645 31.8548 61.5387 32.1332 61.2513 32.3276C60.964 32.522 60.6869 32.627 60.4098 32.648C59.9941 32.648 59.6503 32.5377 59.3732 32.3171C59.0961 32.0965 58.8806 31.8286 58.7267 31.5081L49.213 10.438C49.0077 9.97571 48.9821 9.5292 49.1463 9.08269C49.3105 8.64143 49.6081 8.32099 50.0392 8.12663C50.4702 7.93226 50.9012 7.91651 51.3374 8.0846C51.7684 8.2527 52.0815 8.56789 52.2713 9.02491L60.3328 27.1008Z"
          fill="#2BC6F4"/>
    <path d="M73.0639 20.3348C73.0639 18.5855 73.3871 16.9361 74.0337 15.3864C74.6802 13.8367 75.568 12.492 76.6918 11.352C77.8155 10.2121 79.1292 9.30858 80.6327 8.64669C82.1362 7.98481 83.7372 7.65386 85.4306 7.65386C87.1239 7.65386 88.7147 7.97955 90.2028 8.63619C91.6909 9.29282 92.9892 10.1806 94.1027 11.3048C95.2162 12.4289 96.0988 13.7527 96.7454 15.2708C97.3919 16.7942 97.7357 18.4227 97.7716 20.1562V30.8515C97.7716 31.3663 97.6074 31.7918 97.279 32.1385C96.9506 32.4852 96.535 32.6585 96.0372 32.6585C95.5395 32.6585 95.1598 32.4852 94.857 32.1385C94.5542 31.7918 94.4054 31.3663 94.4054 30.8515L94.3798 28.7555C93.2406 30.0268 91.9064 31.0564 90.3875 31.8338C88.8686 32.6113 87.2163 33 85.4357 33C83.6551 33 82.1413 32.6691 80.6378 32.0019C79.1343 31.34 77.8207 30.4312 76.6969 29.2808C75.5731 28.1304 74.6854 26.7856 74.0388 25.2464C73.3923 23.7073 73.069 22.0683 73.069 20.3348H73.0639ZM76.4352 20.3348C76.4352 21.5903 76.6712 22.7722 77.1331 23.8806C77.6 24.9838 78.2414 25.9609 79.0522 26.8014C79.863 27.6419 80.8174 28.3037 81.9156 28.7923C83.0137 29.2808 84.1836 29.5225 85.4306 29.5225C86.6775 29.5225 87.8731 29.2808 88.9713 28.7923C90.0694 28.3037 91.0187 27.6419 91.8243 26.8014C92.63 25.9609 93.256 24.989 93.7178 23.8806C94.1745 22.7722 94.4054 21.5956 94.4054 20.3348C94.4054 19.0741 94.1745 17.8606 93.7076 16.7364C93.2406 15.6123 92.6043 14.63 91.8038 13.7895C90.9982 12.949 90.054 12.2923 88.9661 11.8143C87.8783 11.3363 86.7032 11.0999 85.4408 11.0999C84.1785 11.0999 83.0239 11.3415 81.9258 11.8143C80.8277 12.2923 79.8732 12.949 79.0625 13.7895C78.2517 14.63 77.6103 15.6123 77.1433 16.7364C76.6764 17.8606 76.4454 19.0583 76.4454 20.3348H76.4352Z"
          fill="#2BC6F4"/>
    <path d="M129.864 20.3348C129.864 18.5855 130.187 16.9361 130.833 15.3864C131.48 13.8367 132.368 12.492 133.491 11.352C134.615 10.2121 135.929 9.30858 137.432 8.64669C138.936 7.98481 140.537 7.65386 142.23 7.65386C143.924 7.65386 145.545 7.98481 147.038 8.64669C148.532 9.30858 149.84 10.2121 150.954 11.352C152.067 12.492 152.95 13.8367 153.596 15.3864C154.243 16.9361 154.566 18.5855 154.566 20.3348C154.566 22.0841 154.243 23.7073 153.596 25.2464C152.95 26.7856 152.067 28.1304 150.954 29.2808C149.84 30.4312 148.532 31.34 147.038 32.0019C145.545 32.6638 143.939 33 142.23 33C140.522 33 138.936 32.6691 137.432 32.0019C135.929 31.34 134.615 30.4312 133.491 29.2808C132.368 28.1304 131.48 26.7856 130.833 25.2464C130.187 23.7073 129.864 22.0683 129.864 20.3348ZM133.235 20.3348C133.235 21.5903 133.471 22.7722 133.933 23.8806C134.4 24.9838 135.041 25.9609 135.852 26.8014C136.663 27.6419 137.617 28.3037 138.715 28.7923C139.813 29.2808 140.983 29.5225 142.23 29.5225C143.477 29.5225 144.673 29.2808 145.771 28.7923C146.869 28.3037 147.818 27.6419 148.624 26.8014C149.43 25.9609 150.056 24.989 150.518 23.8806C150.974 22.7722 151.205 21.5956 151.205 20.3348C151.205 19.0741 150.974 17.8606 150.507 16.7364C150.04 15.6123 149.404 14.63 148.604 13.7895C147.798 12.949 146.854 12.2923 145.766 11.8143C144.678 11.3363 143.503 11.0999 142.241 11.0999C140.978 11.0999 139.824 11.3415 138.726 11.8143C137.627 12.2923 136.673 12.949 135.862 13.7895C135.051 14.63 134.41 15.6123 133.943 16.7364C133.476 17.8606 133.245 19.0583 133.245 20.3348H133.235Z"
          fill="#2BC6F4"/>
    <path d="M166.912 27.1008L174.948 9.05117C175.153 8.5889 175.466 8.27372 175.882 8.09511C176.298 7.91651 176.729 7.92701 177.18 8.12138C177.611 8.31574 177.909 8.63618 178.073 9.07744C178.237 9.5187 178.222 9.97046 178.032 10.4327L168.519 31.5029C168.344 31.8548 168.118 32.1332 167.831 32.3276C167.544 32.522 167.266 32.627 166.989 32.648C166.574 32.648 166.23 32.5377 165.953 32.3171C165.676 32.0965 165.46 31.8286 165.306 31.5081L155.793 10.438C155.587 9.97571 155.562 9.5292 155.726 9.08269C155.89 8.64143 156.188 8.32099 156.619 8.12663C157.05 7.93226 157.481 7.91651 157.917 8.0846C158.348 8.2527 158.661 8.56789 158.851 9.02491L166.912 27.1008Z"
          fill="#2BC6F4"/>
    <path d="M181.275 27.7154H183.661V32.6533H181.275V27.7154Z" fill="#2BC6F4"/>
    <path d="M213.578 20.8128C213.578 22 213.783 23.1189 214.198 24.1696C214.614 25.2202 215.189 26.1447 215.923 26.9432C216.656 27.7417 217.524 28.3668 218.529 28.829C219.53 29.2913 220.618 29.5172 221.798 29.5172C222.978 29.5172 224.066 29.2808 225.026 28.8133C225.985 28.3458 226.806 27.7101 227.489 26.9012C228.171 26.0974 228.7 25.1571 229.069 24.0855C229.439 23.0139 229.629 21.8792 229.629 20.6763V9.71832C229.629 9.22453 229.793 8.80954 230.121 8.46809C230.45 8.13189 230.855 7.96379 231.343 7.96379C231.83 7.96379 232.225 8.13189 232.533 8.46809C232.846 8.80429 233 9.21928 233 9.71832V20.7603C233 22.4413 232.723 24.0225 232.169 25.5091C231.615 26.9957 230.845 28.2932 229.86 29.3964C228.874 30.5048 227.694 31.3768 226.319 32.0229C224.944 32.6691 223.435 32.9895 221.793 32.9895C220.151 32.9895 218.627 32.6691 217.216 32.0334C215.805 31.3978 214.583 30.5258 213.547 29.4174C212.51 28.3142 211.694 27.022 211.099 25.5406C210.504 24.0645 210.206 22.4833 210.206 20.8023V9.71832C210.206 9.22453 210.37 8.80954 210.699 8.48385C211.027 8.15816 211.417 7.99531 211.864 7.99531C212.31 7.99531 212.731 8.15816 213.07 8.48385C213.408 8.80954 213.578 9.22453 213.578 9.71832V20.8128Z"
          fill="#2BC6F4"/>
    <path d="M206.029 8.47334C205.716 8.1529 205.285 7.99531 204.731 7.99531H204.551C202.786 7.99531 201.129 8.34726 199.574 9.04593C198.019 9.74459 196.659 10.6901 195.505 11.8878C195.366 12.0297 195.243 12.182 195.115 12.3291V9.72357C195.115 9.22978 194.945 8.81479 194.607 8.4891C194.268 8.16341 193.868 8.00056 193.401 8.00056C192.934 8.00056 192.564 8.16341 192.236 8.4891C191.908 8.81479 191.743 9.22978 191.743 9.72357V20.8181H191.754C191.754 20.9442 191.743 21.065 191.743 21.1911V30.9303C191.743 31.4241 191.913 31.8391 192.251 32.1648C192.59 32.4904 193.001 32.6533 193.483 32.6533C193.934 32.6533 194.314 32.4904 194.637 32.1648C194.956 31.8391 195.115 31.4241 195.115 30.9303V21.1911C195.115 19.8463 195.366 18.5803 195.869 17.3983C196.372 16.2111 197.049 15.1763 197.906 14.2938C198.763 13.4112 199.764 12.7126 200.913 12.2083C202.063 11.704 203.279 11.4518 204.557 11.4518H204.736C205.239 11.4518 205.655 11.2837 205.993 10.9475C206.332 10.6113 206.501 10.1964 206.501 9.69731C206.501 9.19826 206.347 8.79378 206.034 8.47859L206.029 8.47334Z"
          fill="#2BC6F4"/>
    <path d="M125.066 15.0292C124.496 13.5583 123.711 12.2766 122.721 11.1787C121.725 10.0808 120.54 9.21928 119.154 8.58891C117.769 7.95853 116.265 7.6486 114.644 7.6486C113.022 7.6486 111.483 7.96904 110.082 8.60466C108.712 9.22978 107.516 10.0755 106.505 11.1419V9.71832C106.505 9.22453 106.336 8.80953 105.997 8.48384C105.659 8.15815 105.258 7.99531 104.791 7.99531C104.324 7.99531 103.955 8.15815 103.627 8.48384C103.298 8.80953 103.134 9.22453 103.134 9.71832V30.9513C103.134 31.4451 103.308 31.8601 103.652 32.1858C103.996 32.5115 104.396 32.6743 104.843 32.6743C105.346 32.6743 105.746 32.5115 106.049 32.1858C106.351 31.8601 106.5 31.4451 106.5 30.9513V19.6467C106.516 18.4437 106.736 17.3248 107.147 16.2899C107.562 15.2551 108.132 14.3515 108.856 13.5846C109.584 12.8176 110.436 12.2083 111.421 11.767C112.406 11.3258 113.479 11.1051 114.633 11.1051C115.788 11.1051 116.825 11.331 117.784 11.7828C118.744 12.2345 119.575 12.8439 120.273 13.6161C120.971 14.3883 121.52 15.2866 121.92 16.3214C122.315 17.3563 122.531 18.4595 122.567 19.6256C122.551 19.6782 122.541 19.7675 122.541 19.8883V30.9565C122.541 31.4503 122.71 31.8653 123.049 32.191C123.388 32.5167 123.798 32.6796 124.281 32.6796C124.763 32.6796 125.138 32.5167 125.445 32.191C125.758 31.8653 125.912 31.4503 125.912 30.9565V19.757C125.912 18.076 125.625 16.5001 125.055 15.0344L125.066 15.0292Z"
          fill="#2BC6F4"/>
    <path d="M22.2474 29.7011C21.919 29.3649 21.5238 29.1968 21.0569 29.1968L3.89229 29.1705L14.0782 2.35875C14.2526 1.89648 14.2475 1.45522 14.0576 1.02447C13.8678 0.598968 13.5548 0.299542 13.1186 0.12619C12.6824 -0.0471619 12.2565 -0.0419088 11.8357 0.141949C11.4149 0.325807 11.1173 0.646245 10.9377 1.10852L0.120691 29.5802C-0.0229888 29.9585 -0.038383 30.3262 0.0745082 30.6886C0.177137 31.0143 0.746725 31.8496 0.869879 32.0019C1.10079 32.2961 1.39328 32.4957 1.73709 32.6008C1.87564 32.6375 1.97827 32.6533 2.05011 32.6533H21.0569C21.5238 32.6691 21.919 32.5115 22.2474 32.1753C22.5758 31.8391 22.74 31.4241 22.74 30.925C22.74 30.426 22.5758 30.0425 22.2474 29.7063V29.7011ZM7.98203 31.4503H5.33422C5.04172 31.4503 4.80568 31.2087 4.80568 30.9093C4.80568 30.6098 5.04172 30.3682 5.33422 30.3682H7.98203C8.27452 30.3682 8.51056 30.6098 8.51056 30.9093C8.51056 31.2087 8.27452 31.4503 7.98203 31.4503ZM12.6927 31.4503H10.0449C9.75237 31.4503 9.51632 31.2087 9.51632 30.9093C9.51632 30.6098 9.75237 30.3682 10.0449 30.3682H12.6927C12.9852 30.3682 13.2212 30.6098 13.2212 30.9093C13.2212 31.2087 12.9852 31.4503 12.6927 31.4503Z"
          fill="#2BC6F4"/>
</svg>
