<svg width="153" height="30" viewBox="0 0 153 30" fill="none" xmlns="http://www.w3.org/2000/svg">
    <path fill-rule="evenodd" clip-rule="evenodd" d="M0 9.21634C1.39809 3.92789 6.32182 0.463053 11.9142 0.0375463C15.8653 -0.266387 20.3028 1.25328 23.4637 5.38677C26.0167 8.66926 26.8677 12.8028 26.4422 19.9756C26.1991 23.8051 26.3814 27.7563 28.3874 28.6073C25.7736 29.4583 22.5519 27.8171 20.9106 25.0817C19.1478 27.5131 15.683 29.0328 11.975 29.2759C6.20024 29.2759 1.8236 25.7503 0.72944 20.8266C0.668654 20.5227 0.607867 20.2795 0.54708 19.9756C0.607867 20.2187 0.72944 20.4619 0.851014 20.705C5.41002 31.3427 21.5793 27.9386 21.7008 15.7205C21.7616 9.45948 17.0811 4.3534 11.1848 3.86711C10.6377 3.80632 10.0298 3.80632 9.48272 3.80632C7.2944 3.92789 2.91776 4.65733 0 9.21634Z" fill="white"/>
    <path fill-rule="evenodd" clip-rule="evenodd" d="M0.851005 20.0363C0.729431 19.7932 0.668645 19.55 0.607858 19.3069C-0.182369 13.8361 3.52562 9.33787 7.65911 8.79079C11.9142 8.18292 14.528 11.0399 14.3457 14.0792C12.8868 12.1341 10.5161 11.7693 8.87485 12.438C7.05125 13.2282 6.13945 15.2342 6.26102 16.7538C6.50417 19.4285 8.81406 21.2521 11.8534 21.0697C17.0811 20.7658 19.087 15.7205 18.6615 11.7085C18.1144 7.33191 14.8319 4.29257 10.82 3.86707C16.4732 4.29257 20.9714 9.21629 20.9106 15.2342C20.6675 26.9052 5.22765 30.1877 0.851005 20.0363Z" fill="white"/>
    <path d="M73.0656 13.289C73.0656 12.7419 73.0048 12.438 72.8832 12.2557C72.7617 12.1341 72.5793 12.0125 72.2146 12.0125C71.7891 12.0125 71.4244 12.0733 71.1812 12.2557C70.9381 12.438 70.8773 12.6812 70.8773 12.9851C70.8773 13.3498 70.9989 13.6537 71.3028 13.9577C71.6067 14.2616 71.9107 14.5048 72.3362 14.6263L73.0048 14.8695V13.289H73.0656ZM67.2301 12.9851C67.2301 12.438 67.4124 12.0125 67.7772 11.7086C68.1419 11.4046 68.6282 11.1615 69.1753 11.0399C69.7223 10.9183 70.3302 10.8576 70.9381 10.8576H77.503V11.4046C77.1991 11.4046 76.9559 11.4654 76.8344 11.7086C76.7128 11.8909 76.5912 12.1341 76.5912 12.3772C76.5304 12.6204 76.5304 12.9851 76.5304 13.4714V18.2735C76.5304 18.9422 76.5912 19.4893 76.7128 19.7932C76.8344 20.1579 77.0775 20.2795 77.5638 20.2795V20.8266H72.3362V20.2187C72.7009 20.2187 72.944 20.0971 73.0048 19.854C73.1264 19.6108 73.1872 19.2461 73.1872 18.7598V18.2735V16.146L72.944 16.0852C72.2146 17.1186 71.6675 18.152 71.3028 19.1246C71.1812 19.3677 71.1204 19.6108 71.1204 19.854C71.1204 20.2187 71.3028 20.4011 71.7283 20.4011V20.9482H66.3183V20.4011C66.5006 20.4011 66.683 20.2187 66.9261 19.854C67.1693 19.4893 67.4732 18.9422 67.8379 18.2735C68.385 17.1794 69.0537 16.2068 69.7831 15.3558C69.2968 15.2342 68.8105 15.0518 68.4458 14.8087C68.0811 14.6263 67.7772 14.3832 67.5948 14.0793C67.3517 13.7145 67.2301 13.3498 67.2301 12.9851ZM55.6806 13.0459C55.6806 11.9517 55.3767 11.4046 54.708 11.4046V10.9183H59.9965V11.4046C59.6925 11.4046 59.4494 11.5262 59.3278 11.8301C59.2062 12.0733 59.1455 12.4988 59.1455 13.0459V15.5989L61.5769 13.0459C61.5769 12.4988 61.5161 12.0733 61.3946 11.8301C61.273 11.587 61.0298 11.4046 60.7259 11.4046V10.9183H65.9536V11.4046C65.2849 11.4046 64.981 11.9517 64.981 13.0459V18.7598C64.981 19.854 65.2849 20.4011 65.9536 20.4011V20.8874H60.7259V20.4011C61.0298 20.4011 61.273 20.2795 61.3946 19.9756C61.5161 19.7324 61.5769 19.3069 61.5769 18.7598V14.7479L59.1455 17.301V18.7598C59.1455 19.3069 59.2062 19.7324 59.3278 19.9756C59.4494 20.2187 59.6925 20.4011 59.9965 20.4011V20.8874H54.708V20.4011C55.3767 20.4011 55.6806 19.854 55.6806 18.7598V13.0459ZM51.3648 15.0518C51.9118 15.1734 52.3981 15.3558 52.8844 15.5989C53.3099 15.8421 53.6746 16.146 53.9178 16.5107C54.1609 16.8754 54.2825 17.301 54.2825 17.7872C54.2825 18.7598 53.857 19.5501 52.9452 20.1579C52.0334 20.7658 50.6961 21.0089 48.9941 21.0089C48.7509 21.0089 48.3862 21.0089 47.8391 20.9482C47.292 20.8874 46.8665 20.8874 46.6234 20.8874C46.2587 20.8874 45.894 20.9482 45.59 21.0089L45.3469 21.0697L44.6782 17.848L45.0429 17.7265L45.1037 17.848C45.3469 18.3343 45.894 18.7598 46.5626 19.1246C47.292 19.4893 47.9607 19.6716 48.6294 19.6716C49.2372 19.6716 49.7843 19.4893 50.0882 19.1246C50.453 18.7598 50.6353 18.2735 50.6353 17.6657C50.6353 17.2402 50.5137 16.8754 50.3314 16.6323C50.149 16.3284 49.8451 16.146 49.3588 15.9636C48.9333 15.7813 48.3254 15.7205 47.596 15.7205H47.4136V14.6263H47.596C48.1431 14.6263 48.5686 14.5655 48.8725 14.444C49.1764 14.3224 49.3588 14.14 49.4804 13.9577C49.6019 13.7145 49.6627 13.4106 49.6627 13.0459C49.6627 12.6812 49.5412 12.438 49.298 12.1949C49.0549 11.9517 48.8117 11.8301 48.447 11.8301C47.8391 11.8301 47.2313 12.0125 46.745 12.3772C46.2587 12.7419 45.7724 13.2282 45.4077 13.8969L45.3469 14.0185L44.8606 13.8969L46.1371 10.2497L46.3195 10.5536C46.3802 10.6752 46.5018 10.736 46.6842 10.736C46.745 10.736 46.8665 10.736 47.1097 10.6752C47.292 10.6752 47.596 10.6144 47.8999 10.6144C48.2038 10.6144 48.447 10.5536 48.7509 10.5536C49.5412 10.5536 50.2706 10.6144 50.8177 10.6752C51.4255 10.7968 51.851 10.9183 52.2158 11.1007C52.5805 11.2831 52.8236 11.5262 53.006 11.8301C53.1884 12.1341 53.2491 12.438 53.2491 12.8635C53.2491 13.3498 53.0668 13.7753 52.6413 14.14C52.3373 14.6871 51.9118 14.9303 51.3648 15.0518ZM38.5996 15.9636C38.2956 16.146 38.0525 16.4499 37.8093 16.8147C37.5662 17.1794 37.5054 17.5441 37.5054 17.9088C37.5054 18.2128 37.5662 18.5167 37.7485 18.7598C37.9309 19.003 38.174 19.1246 38.478 19.1246C38.9035 19.1246 39.2682 18.9422 39.5114 18.5167C39.7545 18.0912 39.9369 17.6049 39.9976 17.0578C40.0584 16.5107 40.1192 15.9636 40.1192 15.4166C39.4506 15.4774 38.9643 15.7205 38.5996 15.9636ZM40.1192 14.0793C40.1192 13.7145 40.1192 13.4106 40.0584 13.2282C39.9976 13.0459 39.9369 12.8635 39.8761 12.7419C39.5721 12.3772 39.1466 12.1949 38.478 12.1949C37.7485 12.1949 37.1407 12.438 36.5328 12.8635C35.9857 13.289 35.5602 13.8969 35.2563 14.6263L34.9524 14.5655L35.3171 10.9183C35.4386 11.0399 35.5602 11.1615 35.621 11.2223C35.6818 11.2831 35.8034 11.2831 35.9249 11.2831C36.1073 11.2831 36.3504 11.2223 36.6544 11.1615C37.323 10.9791 37.8701 10.8576 38.3564 10.736C38.8427 10.6144 39.3898 10.6144 39.9369 10.6144C40.4839 10.6144 40.9702 10.6752 41.4565 10.736C41.9428 10.8576 42.3075 11.0399 42.6723 11.2831C42.9154 11.5262 43.0978 11.7694 43.2801 12.1341C43.4017 12.4988 43.4625 12.8027 43.5233 13.1675C43.5233 13.5322 43.5841 13.8969 43.5841 14.444V18.152V18.6383C43.5841 19.1853 43.6448 19.5501 43.7664 19.854C43.888 20.1579 44.1311 20.3403 44.5566 20.4011V20.8874H40.7879C40.4839 20.5834 40.3016 20.0971 40.18 19.5501C39.9369 19.9148 39.6937 20.2187 39.2682 20.4619C38.9035 20.705 38.478 20.8874 38.0525 21.0089C37.627 21.1305 37.2015 21.1913 36.8367 21.1913C36.1073 21.1913 35.4994 20.9482 34.9524 20.5226C34.4053 20.0364 34.1621 19.4285 34.1621 18.6383C34.1621 17.6657 34.4661 16.8754 35.1347 16.2676C35.8034 15.6597 36.5328 15.2342 37.4446 14.9303C38.2956 14.6263 39.2682 14.3832 40.2408 14.2616V14.0793H40.1192Z" fill="white"/>
    <path d="M149.596 18.2735C149.596 18.8206 149.596 19.1853 149.657 19.4892C149.657 19.7932 149.778 19.9755 149.9 20.1579C150.022 20.3403 150.204 20.401 150.508 20.401V20.8873H145.28V20.401C145.706 20.401 146.01 20.2187 146.07 19.9147C146.192 19.6108 146.253 19.0637 146.253 18.2735V12.1948C145.766 12.1948 145.341 12.3164 144.915 12.5596C144.49 12.8027 144.125 13.1066 143.882 13.5321C143.578 13.9577 143.396 14.5047 143.213 15.1126L142.788 15.0518L143.7 10.6752C143.821 10.9183 144.125 11.0399 144.612 11.0399C144.733 11.0399 144.794 11.0399 144.855 11.0399C144.915 11.0399 145.037 11.0399 145.098 11.0399H150.569C150.69 11.0399 150.751 11.0399 150.812 11.0399C150.873 11.0399 150.994 11.0399 151.055 11.0399C151.663 11.0399 152.028 10.9183 152.149 10.6752L153 15.0518L152.635 15.1126C152.331 14.14 151.906 13.4714 151.42 12.9851C150.933 12.4988 150.325 12.2556 149.596 12.2556V18.2735ZM132.454 13.0459C132.454 11.9517 132.15 11.4046 131.482 11.4046V10.9183H136.709V11.4046C136.405 11.4046 136.162 11.5262 136.041 11.7693C135.919 12.0125 135.858 12.438 135.858 12.9851V13.9577H138.29V12.9851C138.29 12.438 138.229 12.0125 138.107 11.7693C137.986 11.5262 137.743 11.3438 137.439 11.3438V10.9183H142.666V11.4046C141.998 11.4046 141.694 11.9517 141.694 13.0459V18.7598C141.694 19.854 141.998 20.401 142.666 20.401V20.8873H137.439V20.401C137.743 20.401 137.986 20.2795 138.107 19.9755C138.229 19.7324 138.29 19.3069 138.29 18.7598V15.3557H135.858V18.7598C135.858 19.3069 135.919 19.7324 136.041 19.9755C136.162 20.2187 136.405 20.401 136.709 20.401V20.8873H131.482V20.401C132.15 20.401 132.454 19.854 132.454 18.7598V13.0459ZM127.227 14.2616V13.8969C127.227 13.5929 127.166 13.289 127.044 13.0459C126.923 12.8027 126.74 12.5596 126.558 12.438C126.315 12.2556 126.072 12.1948 125.828 12.1948C125.281 12.1948 124.917 12.4988 124.673 13.0459C124.43 13.5929 124.309 14.2616 124.309 14.9302L127.227 14.2616ZM124.309 16.146C124.43 17.0578 124.673 17.848 125.16 18.5167C125.646 19.1245 126.254 19.4892 127.044 19.4892C127.774 19.4892 128.381 19.2461 128.929 18.8206C129.476 18.3951 129.901 17.7872 130.205 17.0578L130.57 17.2401L129.476 21.1305C129.232 20.9481 129.05 20.8873 128.868 20.8873C128.868 20.8873 128.746 20.8873 128.442 20.9481C127.47 21.1305 126.679 21.1913 126.132 21.1913C125.828 21.1913 125.525 21.1913 125.16 21.1305C124.795 21.0697 124.491 21.0089 124.187 20.9481C123.883 20.8873 123.519 20.705 123.215 20.5834C122.911 20.401 122.607 20.2187 122.364 20.0363C121.756 19.55 121.33 18.9422 120.966 18.2127C120.662 17.4833 120.479 16.7538 120.479 15.9028C120.479 15.0518 120.601 14.3224 120.905 13.6537C121.209 12.9851 121.573 12.4988 122.12 12.0125C122.607 11.587 123.215 11.2223 123.883 11.0399C124.552 10.7967 125.221 10.736 125.95 10.736C126.74 10.736 127.53 10.8575 128.199 11.1615C128.868 11.4654 129.476 11.8909 129.901 12.4988C130.327 13.1066 130.631 13.8361 130.813 14.7479L124.309 16.146ZM109.598 18.1519C109.598 18.6382 109.598 19.0029 109.659 19.3069C109.72 19.6108 109.781 19.854 109.963 20.0363C110.085 20.2187 110.328 20.3403 110.632 20.401V20.8873H107.228V20.401C107.532 20.3403 107.775 20.2795 107.896 20.0971C108.018 19.9147 108.14 19.7324 108.14 19.4892C108.2 19.2461 108.2 18.8206 108.2 18.3343V13.7145C108.2 12.9851 108.14 12.438 108.018 12.0733C107.896 11.7085 107.653 11.5262 107.228 11.4654V10.9183H112.759V11.4046C112.516 11.4046 112.395 11.5262 112.395 11.8301C112.395 12.0733 112.516 12.3772 112.759 12.6811L113.853 14.3832L114.948 12.6811C115.191 12.3164 115.312 12.0125 115.312 11.7693C115.312 11.5262 115.252 11.4046 115.069 11.4046V10.9183H119.932V11.4046C119.628 11.4654 119.385 11.587 119.263 11.7085C119.142 11.8909 119.02 12.0733 119.02 12.3164C118.96 12.5596 118.96 12.9243 118.96 13.4714V18.0911C118.96 18.8814 119.02 19.4892 119.142 19.7932C119.263 20.0971 119.507 20.2795 119.932 20.2795V20.7658H114.704V20.2795C115.069 20.2795 115.312 20.0971 115.373 19.9147C115.495 19.6716 115.555 19.3069 115.555 18.8814V18.2127V14.0792L112.577 18.6382L109.72 14.14V18.1519H109.598ZM102.912 14.2616V13.8969C102.912 13.5929 102.851 13.289 102.729 13.0459C102.608 12.8027 102.426 12.5596 102.243 12.438C102 12.2556 101.757 12.1948 101.514 12.1948C100.967 12.1948 100.602 12.4988 100.359 13.0459C100.116 13.5929 99.9941 14.2616 99.9941 14.9302L102.912 14.2616ZM100.055 16.146C100.176 17.0578 100.42 17.848 100.906 18.5167C101.392 19.1245 102 19.4892 102.79 19.4892C103.52 19.4892 104.128 19.2461 104.675 18.8206C105.222 18.3951 105.647 17.7872 105.951 17.0578L106.316 17.2401L105.222 21.1305C104.979 20.9481 104.796 20.8873 104.614 20.8873C104.614 20.8873 104.492 20.8873 104.249 20.9481C103.277 21.1305 102.486 21.1913 101.939 21.1913C101.635 21.1913 101.331 21.1913 100.967 21.1305C100.602 21.0697 100.298 21.0089 99.9941 20.9481C99.6902 20.8873 99.3254 20.705 99.0215 20.5834C98.7176 20.401 98.4136 20.2187 98.1705 20.0363C97.5626 19.55 97.1371 18.9422 96.7724 18.2127C96.4685 17.4833 96.2861 16.7538 96.2861 15.9028C96.2861 15.0518 96.4077 14.3224 96.7116 13.6537C97.0156 12.9851 97.3803 12.4988 97.9274 12.0125C98.4136 11.587 99.0215 11.2223 99.6902 11.0399C100.359 10.7967 101.027 10.736 101.757 10.736C102.547 10.736 103.337 10.8575 104.006 11.1615C104.675 11.4654 105.283 11.8909 105.708 12.4988C106.134 13.1066 106.437 13.8361 106.62 14.7479L100.055 16.146ZM91.6663 20.8873H84.3719V20.401C85.0406 20.401 85.3445 19.854 85.3445 18.7598V13.0459C85.3445 11.9517 85.0406 11.4046 84.3719 11.4046V10.9183H89.5388V11.4046C89.2349 11.4046 88.9917 11.5262 88.8701 11.8301C88.7486 12.0733 88.6878 12.4988 88.6878 13.0459V18.7598C88.6878 19.1245 88.7486 19.3677 88.8701 19.4892C88.9917 19.6108 89.2349 19.6716 89.5388 19.6716H90.329C90.6937 19.6716 90.8761 19.6108 90.9977 19.4892C91.1192 19.3677 91.18 19.1245 91.18 18.7598V13.0459C91.18 12.4988 91.1192 12.0733 90.9977 11.8301C90.8761 11.587 90.6329 11.4654 90.329 11.4654V10.9183H95.4959V11.4046C94.8272 11.4046 94.5233 11.9517 94.5233 13.0459V18.7598C94.5233 19.3069 94.5841 19.6716 94.6449 19.9147C94.7057 20.1579 94.8272 20.2795 95.0096 20.2795C95.1312 20.2795 95.2527 20.2187 95.4959 20.0363L96.2861 24.6561L95.9214 24.7169C95.6782 23.9875 95.3743 23.3188 95.0704 22.7717C94.7664 22.2246 94.2801 21.7383 93.7331 21.3736C93.2468 21.0697 92.5173 20.8873 91.6663 20.8873Z" fill="white"/>
</svg>
