<svg width="138" height="34" viewBox="0 0 138 34" fill="none" xmlns="http://www.w3.org/2000/svg">
    <path d="M46.5419 7.16578H43.0698V5.02338H52.5997V7.16578H49.1276V16.6219H46.5419V7.16578Z" fill="white"/>
    <path d="M57.5494 16.8436C56.8845 16.8436 56.2935 16.7697 55.7764 16.5481C55.2593 16.3265 54.816 16.031 54.4466 15.6616C54.0773 15.2922 53.7817 14.7751 53.5601 14.258C53.3385 13.7408 53.2646 13.1498 53.2646 12.4849C53.2646 11.8201 53.3385 11.3029 53.5601 10.7119C53.7817 10.1948 54.0773 9.67766 54.4466 9.30828C54.816 8.9389 55.2593 8.56952 55.7764 8.34789C56.2935 8.12627 56.8845 7.97852 57.5494 7.97852C58.2143 7.97852 58.8053 8.12627 59.3224 8.34789C59.8396 8.56952 60.2828 8.9389 60.5783 9.38216C60.9477 9.82541 61.1693 10.2687 61.3171 10.8597C61.4648 11.3768 61.6126 11.9678 61.6126 12.5588V12.7804C61.6126 12.8543 61.6126 12.9282 61.6126 13.0021H55.5548C55.5548 13.7408 55.7764 14.258 56.1458 14.6273C56.5152 14.9967 56.9584 15.1445 57.6233 15.1445C58.0665 15.1445 58.5098 14.9967 58.8053 14.7751C59.1747 14.5535 59.3224 14.3318 59.3963 14.0363H61.391C61.0955 15.0706 60.5783 15.7355 59.9134 16.1787C59.3224 16.622 58.5098 16.8436 57.5494 16.8436ZM59.3224 11.5246C59.2486 10.9335 59.0269 10.4903 58.7314 10.1948C58.4359 9.89929 58.0665 9.75154 57.4755 9.75154C57.1062 9.75154 56.8107 9.82541 56.5152 9.97316C56.2935 10.1209 56.0719 10.2687 55.9241 10.4164C55.7764 10.5642 55.7025 10.7858 55.6286 11.0074C55.5548 11.2291 55.5548 11.3768 55.5548 11.5246H59.3224Z" fill="white"/>
    <path d="M63.0159 8.20024H65.2321V9.30838C65.5276 8.86512 65.897 8.49575 66.3403 8.34799C66.7835 8.12637 67.2268 8.05249 67.7439 8.05249C68.4088 8.05249 68.9998 8.20024 69.4431 8.42187C69.8863 8.6435 70.3296 9.01288 70.6251 9.38226C70.9206 9.82551 71.1422 10.2688 71.29 10.7859C71.4377 11.303 71.5116 11.894 71.5116 12.485C71.5116 13.076 71.4377 13.5932 71.29 14.1103C71.1422 14.6274 70.9206 15.0707 70.6251 15.5139C70.3296 15.8833 69.9602 16.2527 69.4431 16.4743C68.9259 16.696 68.4088 16.8437 67.8178 16.8437C67.3007 16.8437 66.7835 16.7698 66.4142 16.5482C65.9709 16.3266 65.6015 16.0311 65.306 15.5878V19.5771H63.0159V8.20024ZM67.2268 15.1446C67.5962 15.1446 67.8917 15.0707 68.1872 14.9229C68.4088 14.7752 68.6304 14.5536 68.7782 14.3319C68.9259 14.1103 69.0737 13.8148 69.1476 13.5193C69.2214 13.2238 69.2214 12.8544 69.2214 12.485C69.2214 12.1157 69.2214 11.8202 69.1476 11.5247C69.0737 11.2292 68.9259 10.9336 68.7782 10.6381C68.6304 10.4165 68.4088 10.1949 68.1872 10.0471C67.9655 9.89939 67.5962 9.82551 67.2268 9.82551C66.8574 9.82551 66.5619 9.89939 66.2664 10.0471C66.0448 10.1949 65.8231 10.4165 65.6754 10.6381C65.5276 10.8598 65.3799 11.1553 65.306 11.5247C65.2321 11.8202 65.2321 12.1895 65.2321 12.5589C65.2321 12.9283 65.2321 13.2238 65.306 13.5932C65.3799 13.8887 65.4538 14.1842 65.6754 14.4058C65.8231 14.6274 66.0448 14.8491 66.2664 14.9968C66.5619 15.0707 66.8574 15.1446 67.2268 15.1446Z" fill="white"/>
    <path d="M72.9153 8.20024H75.1316V9.30838C75.4271 8.86512 75.7964 8.49575 76.2397 8.34799C76.6829 8.12637 77.1262 8.05249 77.6433 8.05249C78.3082 8.05249 78.8992 8.20024 79.3425 8.42187C79.7857 8.6435 80.229 9.01288 80.5245 9.38226C80.82 9.82551 81.0416 10.2688 81.1894 10.7859C81.3371 11.303 81.411 11.894 81.411 12.485C81.411 13.076 81.3371 13.5932 81.1894 14.1103C81.0416 14.6274 80.82 15.0707 80.5245 15.5139C80.229 15.8833 79.8596 16.2527 79.3425 16.4743C78.8992 16.696 78.3082 16.8437 77.7172 16.8437C77.2001 16.8437 76.683 16.7698 76.3136 16.5482C75.9442 16.3266 75.5009 16.0311 75.2054 15.5878V19.5771H72.9153V8.20024ZM77.1262 15.1446C77.4956 15.1446 77.7911 15.0707 78.0866 14.9229C78.3082 14.7752 78.5298 14.5536 78.6776 14.3319C78.8254 14.1103 78.9731 13.8148 79.047 13.5193C79.1209 13.2238 79.1209 12.8544 79.1209 12.485C79.1209 12.1157 79.1209 11.8202 79.047 11.5247C78.9731 11.2292 78.8254 10.9336 78.6776 10.6381C78.5298 10.4165 78.3082 10.1949 78.0866 10.0471C77.865 9.89939 77.4956 9.82551 77.1262 9.82551C76.7568 9.82551 76.4613 9.89939 76.1658 10.0471C75.9442 10.1949 75.7226 10.4165 75.5748 10.6381C75.4271 10.8598 75.2793 11.1553 75.2054 11.5247C75.1316 11.8202 75.1316 12.1895 75.1316 12.5589C75.1316 12.9283 75.1316 13.2238 75.2054 13.5932C75.2793 13.8887 75.3532 14.1842 75.5748 14.4058C75.7226 14.6274 75.9442 14.8491 76.1658 14.9968C76.4613 15.0707 76.7568 15.1446 77.1262 15.1446Z" fill="white"/>
    <path d="M82.8147 8.20013H85.031V13.8886L88.2076 8.20013H90.8672V16.622H88.6509V10.9335L85.4742 16.622H82.8147V8.20013Z" fill="white"/>
    <path d="M94.635 9.97315H91.9016V8.20013H99.7324V9.97315H96.9251V16.622H94.635V9.97315Z" fill="white"/>
    <path d="M104.83 16.8436C104.165 16.8436 103.574 16.7697 103.057 16.5481C102.54 16.3265 102.096 16.031 101.727 15.6616C101.358 15.2922 101.062 14.849 100.84 14.258C100.619 13.7408 100.545 13.0759 100.545 12.4111C100.545 11.7462 100.619 11.1552 100.84 10.5642C101.062 10.047 101.358 9.52991 101.727 9.16053C102.096 8.79115 102.54 8.49565 103.057 8.27402C103.574 8.05239 104.165 7.97852 104.83 7.97852C105.495 7.97852 106.086 8.05239 106.603 8.27402C107.12 8.49565 107.563 8.79115 108.006 9.16053C108.376 9.52991 108.671 10.047 108.893 10.5642C109.115 11.0813 109.188 11.7462 109.188 12.4111C109.188 13.0759 109.115 13.667 108.893 14.258C108.671 14.7751 108.376 15.2922 108.006 15.6616C107.637 16.031 107.194 16.3265 106.603 16.5481C106.086 16.7697 105.495 16.8436 104.83 16.8436ZM104.83 15.1445C105.199 15.1445 105.568 15.0706 105.79 14.9228C106.086 14.7751 106.233 14.5535 106.455 14.3318C106.603 14.1102 106.75 13.8147 106.824 13.4453C106.898 13.1498 106.898 12.7804 106.898 12.4849C106.898 12.1156 106.898 11.8201 106.824 11.5246C106.75 11.2291 106.677 10.9335 106.455 10.638C106.307 10.4164 106.086 10.1948 105.79 10.047C105.495 9.89929 105.199 9.82541 104.83 9.82541C104.46 9.82541 104.091 9.89929 103.869 10.047C103.574 10.1948 103.426 10.4164 103.278 10.638C103.131 10.8597 102.983 11.1552 102.909 11.5246C102.835 11.8201 102.835 12.1894 102.835 12.4849C102.835 12.8543 102.835 13.1498 102.909 13.4453C102.983 13.7408 103.057 14.0363 103.278 14.3318C103.426 14.5535 103.648 14.7751 103.869 14.9228C104.091 15.0706 104.46 15.1445 104.83 15.1445Z" fill="white"/>
    <path d="M110.666 8.20024H112.882V9.30838C113.178 8.86512 113.547 8.49575 113.991 8.34799C114.434 8.12637 114.877 8.05249 115.394 8.05249C116.059 8.05249 116.65 8.20024 117.093 8.42187C117.537 8.6435 117.98 9.01288 118.275 9.38226C118.571 9.82551 118.792 10.2688 118.94 10.7859C119.088 11.303 119.162 11.894 119.162 12.485C119.162 13.076 119.088 13.5932 118.94 14.1103C118.792 14.6274 118.571 15.0707 118.275 15.5139C117.98 15.8833 117.61 16.2527 117.093 16.4743C116.576 16.696 116.059 16.8437 115.468 16.8437C114.951 16.8437 114.434 16.7698 114.064 16.5482C113.621 16.3266 113.252 16.0311 112.956 15.5878V19.5771H110.666V8.20024ZM114.877 15.1446C115.246 15.1446 115.542 15.0707 115.837 14.9229C116.059 14.7752 116.281 14.5536 116.428 14.3319C116.576 14.1103 116.724 13.8148 116.798 13.5193C116.872 13.2238 116.872 12.8544 116.872 12.485C116.872 12.1157 116.872 11.8202 116.798 11.5247C116.724 11.2292 116.576 10.9336 116.428 10.6381C116.281 10.4165 116.059 10.1949 115.837 10.0471C115.616 9.89939 115.246 9.82551 114.877 9.82551C114.508 9.82551 114.212 9.89939 113.917 10.0471C113.695 10.1949 113.473 10.4165 113.326 10.6381C113.178 10.8598 113.03 11.1553 112.956 11.5247C112.882 11.8202 112.882 12.1895 112.882 12.5589C112.882 12.9283 112.882 13.2238 112.956 13.5932C113.03 13.8887 113.104 14.1842 113.326 14.4058C113.473 14.6274 113.695 14.8491 113.917 14.9968C114.212 15.0707 114.508 15.1446 114.877 15.1446Z" fill="white"/>
    <path d="M120.566 8.20013H122.782V13.8886L125.958 8.20013H128.618V16.622H126.402V10.9335L123.225 16.622H120.566V8.20013Z" fill="white"/>
    <path d="M132.164 13.4454C131.573 13.3715 131.056 13.076 130.686 12.5589C130.317 12.1156 130.095 11.5246 130.095 10.7859C130.095 10.4165 130.169 10.0471 130.317 9.75161C130.465 9.45611 130.612 9.1606 130.908 8.93898C131.13 8.71735 131.425 8.49572 131.794 8.34797C132.164 8.20022 132.533 8.12634 132.903 8.12634H138V16.5482H135.71V13.5932H134.602L132.312 16.5482H129.504L132.164 13.4454ZM135.636 9.89936H133.789C133.272 9.89936 132.903 9.97324 132.681 10.1949C132.459 10.4165 132.385 10.6381 132.385 10.9336C132.385 11.2291 132.459 11.5246 132.681 11.7463C132.903 11.9679 133.272 12.0418 133.789 12.0418H135.636V9.89936Z" fill="white"/>
    <path d="M46.0984 28.8855L43.1434 25.1917H45.6552L48.3886 28.7378V25.1917H50.531V28.7378L53.2644 25.1917H55.7762L52.7473 28.8116L56.1455 33.6136H53.486L51.0481 29.9936L50.531 30.6585V33.6136H48.3886V30.8063L47.7976 29.9936L45.4335 33.6136H42.774L46.0984 28.8855Z" fill="white"/>
    <path d="M56.9581 25.1917H59.1743V30.8802L62.2771 25.1917H64.9367V33.6136H62.7204V27.9251L59.5437 33.6136H56.9581V25.1917Z" fill="white"/>
    <path d="M70.1083 33.7612C69.5912 33.7612 69.0741 33.6873 68.6308 33.6134C68.1875 33.5396 67.7443 33.3179 67.3749 33.0963C67.0055 32.8747 66.71 32.5792 66.4884 32.2098C66.2668 31.8404 66.1929 31.3972 66.119 30.88H68.3353C68.4092 31.3233 68.5569 31.6927 68.8524 31.9143C69.1479 32.1359 69.5912 32.2837 70.1083 32.2837C70.6254 32.2837 70.9948 32.2098 71.2165 31.9882C71.4381 31.7665 71.5858 31.471 71.5858 31.1755C71.5858 30.8062 71.4381 30.5845 71.2903 30.3629C71.0687 30.1413 70.6993 30.0674 70.1822 30.0674H69.2957V28.5899H69.8867C70.4038 28.5899 70.7732 28.516 71.0687 28.3683C71.3642 28.2205 71.512 27.925 71.512 27.4818C71.512 27.2601 71.4381 27.0385 71.2165 26.8169C70.9948 26.5952 70.6993 26.5214 70.1822 26.5214C69.7389 26.5214 69.3696 26.5952 69.0741 26.743C68.7785 26.8907 68.6308 27.1862 68.5569 27.6295H66.4145C66.4884 27.1124 66.5623 26.743 66.7839 26.3736C67.0055 26.0042 67.301 25.7826 67.5965 25.561C67.9659 25.3393 68.3353 25.1916 68.7785 25.1177C69.2218 25.0438 69.6651 24.97 70.1822 24.97C71.2903 24.97 72.1768 25.1177 72.7678 25.4871C73.3588 25.8565 73.6543 26.4475 73.6543 27.1862C73.6543 27.4079 73.5805 27.6295 73.5066 27.8511C73.4327 28.0728 73.285 28.2205 73.1372 28.4421C72.9895 28.6638 72.8417 28.7376 72.6201 28.8115C72.4723 28.8854 72.2507 28.9593 72.103 29.0331C72.3246 29.0331 72.4723 29.107 72.694 29.1809C72.9156 29.2548 73.0633 29.3286 73.285 29.5503C73.4327 29.698 73.5805 29.9197 73.7282 30.1413C73.876 30.3629 73.876 30.6584 73.876 31.0278C73.876 31.471 73.8021 31.9143 73.5805 32.2098C73.3588 32.5792 73.1372 32.8008 72.7678 33.0224C72.3985 33.2441 72.0291 33.3918 71.512 33.5396C71.2165 33.7612 70.6993 33.7612 70.1083 33.7612Z" fill="white"/>
    <path d="M75.5013 25.1917H77.7914V28.2206H81.042V25.1917H83.3321V33.6136H81.042V30.0675H77.7914V33.6136H75.5013V25.1917Z" fill="white"/>
    <path d="M85.1049 25.1917H87.3211V30.8802L90.4978 25.1917H93.0834V33.6136H90.8672V27.9251L87.7644 33.6136H85.1049V25.1917Z" fill="white"/>
    <path d="M21.7195 23.7882L0 2.06866V23.7882H21.7195Z" fill="white"/>
    <path d="M2.06848 0L15.2923 13.2976V0H2.06848Z" fill="white"/>
    <path d="M18.2474 16.1788L25.8566 23.788H33.6136V0H18.2474V16.1788Z" fill="white"/>
    <path d="M17.4349 26.743L10.4906 33.6134H33.6137V26.743H17.4349Z" fill="white"/>
    <path d="M13.2976 26.743H0V33.6134H6.35332L13.2976 26.743Z" fill="white"/>
</svg>
