<svg width="181" height="25" viewBox="0 0 181 25" fill="none" xmlns="http://www.w3.org/2000/svg">
    <path d="M139.953 6.67721H137.587L137.598 10.6932H136.727V5.92993H139.958L139.953 6.67721Z" fill="white"/>
    <path d="M143.63 8.32771C143.731 8.24129 143.811 8.1328 143.863 8.01067C143.915 7.88854 143.938 7.75606 143.931 7.62344C143.938 7.4916 143.915 7.35989 143.863 7.23863C143.81 7.11737 143.731 7.00987 143.63 6.92454C143.376 6.74182 143.066 6.65427 142.754 6.67722H141.722V8.59114H142.759C143.07 8.61339 143.38 8.52797 143.635 8.34921L143.63 8.32771ZM143.877 6.15571C144.166 6.27582 144.411 6.48005 144.582 6.74173C144.75 7.01248 144.836 7.32626 144.829 7.64493C144.834 7.9634 144.748 8.27676 144.582 8.54812C144.413 8.81118 144.167 9.01581 143.877 9.13414C143.538 9.2785 143.171 9.34817 142.802 9.33844H141.727V10.7147H140.84V5.95145H142.802C143.171 5.94509 143.537 6.0146 143.877 6.15571Z" fill="white"/>
    <path d="M149.78 5.92993L147.716 9.77392C147.563 10.0781 147.34 10.3415 147.066 10.5427C146.823 10.7072 146.536 10.7952 146.243 10.7954C146.002 10.7952 145.764 10.7439 145.544 10.6449L145.759 9.95134C145.908 10.0038 146.064 10.0346 146.221 10.0427C146.369 10.0388 146.513 9.99529 146.637 9.91679C146.762 9.83828 146.864 9.72766 146.931 9.59649L147.006 9.48358L145.109 5.92993H146.055L147.463 8.72555L148.91 5.92993H149.78Z" fill="white"/>
    <path d="M154.748 5.92993V10.6932H153.877V6.67721H151.41V10.6932H150.539V5.92993H154.748Z" fill="white"/>
    <path d="M160.447 5.92993V10.6932H159.57V6.67721H157.103V10.6932H156.232V5.92993H160.447Z" fill="white"/>
    <path d="M164.802 8.89761L163.904 6.81703L163.011 8.89761H164.802ZM165.092 9.59113H162.71L162.242 10.6664H161.334L163.484 5.90308H164.355L166.506 10.6664H165.554L165.092 9.59113Z" fill="white"/>
    <path d="M138.474 16.2254H137.587V18.2307H136.716V13.4674H137.587V15.462H138.501L139.867 13.4674H140.808L139.179 15.7738L140.867 18.2307H139.867L138.474 16.2254Z" fill="white"/>
    <path d="M144.657 17.3112C144.91 17.171 145.119 16.9623 145.259 16.7091C145.4 16.4443 145.474 16.1489 145.474 15.8489C145.474 15.5489 145.4 15.2535 145.259 14.9887C145.12 14.7359 144.911 14.5286 144.657 14.3919C144.394 14.2508 144.101 14.1769 143.802 14.1769C143.504 14.1769 143.21 14.2508 142.947 14.3919C142.693 14.5286 142.484 14.7359 142.345 14.9887C142.204 15.2535 142.13 15.5489 142.13 15.8489C142.13 16.1489 142.204 16.4443 142.345 16.7091C142.486 16.9623 142.694 17.171 142.947 17.3112C143.21 17.4524 143.504 17.5263 143.802 17.5263C144.101 17.5263 144.394 17.4524 144.657 17.3112ZM142.507 17.9832C142.125 17.782 141.807 17.4786 141.587 17.1069C141.362 16.7265 141.247 16.291 141.254 15.8489C141.244 15.4098 141.356 14.9766 141.577 14.597C141.798 14.2175 142.12 13.9065 142.507 13.6984C142.913 13.4933 143.363 13.3865 143.818 13.3865C144.274 13.3865 144.723 13.4933 145.13 13.6984C145.511 13.9013 145.829 14.2043 146.049 14.5748C146.268 14.9581 146.382 15.3916 146.382 15.8328C146.382 16.2739 146.268 16.7074 146.049 17.0908C145.83 17.4625 145.512 17.7659 145.13 17.9671C144.724 18.1756 144.275 18.2843 143.818 18.2843C143.362 18.2843 142.912 18.1756 142.507 17.9671" fill="white"/>
    <path d="M151.856 18.2307L151.85 15.0749L150.286 17.6877H149.893L148.324 15.1179V18.2307H147.49V13.4674H148.216L150.103 16.6179L151.969 13.4674H152.689L152.7 18.2307H151.856Z" fill="white"/>
    <path d="M158.388 13.4674V18.2307H157.517V14.2201H155.049V18.2307H154.178V13.4674H158.388Z" fill="white"/>
    <path d="M162.732 16.435L161.834 14.3544L160.941 16.435H162.732ZM163.022 17.1285H160.64L160.173 18.2037H159.259L161.409 13.4404H162.28L164.431 18.2037H163.506L163.022 17.1285Z" fill="white"/>
    <path d="M169.522 13.4674V18.2307H168.635V16.1931H166.172V18.2307H165.285V13.4674H166.172V15.4351H168.635V13.4674H169.522Z" fill="white"/>
    <path d="M170.995 13.4674H171.866V16.849L174.425 13.4674H175.247V18.2307H174.377V14.8598L171.817 18.2307H170.995V13.4674Z" fill="white"/>
    <path d="M177.919 12.8921C177.814 12.8013 177.731 12.6878 177.676 12.5603C177.621 12.4327 177.596 12.2943 177.602 12.1556H178.242C178.24 12.2292 178.253 12.3025 178.282 12.3702C178.311 12.438 178.354 12.4987 178.409 12.548C178.54 12.6454 178.702 12.693 178.866 12.6824C179.029 12.6899 179.19 12.6426 179.323 12.548C179.379 12.5 179.424 12.4397 179.454 12.3717C179.484 12.3037 179.498 12.2298 179.495 12.1556H180.108C180.113 12.294 180.087 12.432 180.032 12.5588C179.976 12.6855 179.891 12.7978 179.785 12.8867C179.518 13.0763 179.193 13.1675 178.866 13.1448C178.538 13.1681 178.211 13.079 177.941 12.8921H177.919ZM176.747 13.462H177.618V16.8436L180.177 13.462H181V18.2253H180.129V14.8544L177.57 18.2253H176.747V13.462Z" fill="white"/>
    <path d="M53.0253 13.3598L51.0576 8.59114L49.0899 13.3437L53.0253 13.3598ZM53.9285 15.5425H48.1652L47.09 18.1984H44.1439L49.6759 5.78479H52.5146L58.0628 18.1984H55.0521L53.9285 15.5425Z" fill="white"/>
    <path d="M71.0356 5.78479V18.1984H68.1969V8.1288H63.9444L63.853 10.7147C63.8295 12.1576 63.6874 13.5961 63.4283 15.0157C63.2787 15.9377 62.8914 16.8049 62.3046 17.5317C62.0227 17.8307 61.6789 18.0645 61.2973 18.2168C60.9156 18.369 60.5053 18.4362 60.095 18.4134C59.616 18.4001 59.14 18.3333 58.6757 18.2145L58.8531 15.7845C59.0272 15.838 59.2087 15.8635 59.3907 15.8598C60.0735 15.8598 60.552 15.4512 60.8262 14.6447C61.1654 13.4037 61.346 12.1248 61.3638 10.8384L61.5412 5.8009L71.0356 5.78479Z" fill="white"/>
    <path d="M81.0997 15.5211C81.3184 15.3163 81.4884 15.0651 81.5972 14.786C81.7061 14.5069 81.751 14.2069 81.7287 13.9082C81.7287 12.6251 80.9366 11.9817 79.3524 11.9781H76.7611V16.0533H79.3524C79.9811 16.0943 80.6029 15.903 81.0997 15.5157V15.5211ZM83.4061 10.8706C83.823 11.2446 84.1491 11.7086 84.3596 12.2275C84.5702 12.7464 84.6596 13.3065 84.6211 13.8652C84.6615 14.4701 84.5611 15.0762 84.3279 15.6359C84.0947 16.1955 83.735 16.6936 83.2771 17.0909C82.3846 17.8328 81.1266 18.1984 79.5137 18.1984H73.9064V5.78479H76.7611V9.8653H79.9169C81.1624 9.78353 82.3972 10.1412 83.4061 10.876" fill="white"/>
    <path d="M89.8092 8.69327C89.5856 8.91099 89.4121 9.17475 89.3007 9.46627C89.1892 9.75778 89.1426 10.0701 89.164 10.3814C89.1444 10.687 89.1893 10.9934 89.2958 11.2805C89.4023 11.5676 89.5681 11.8291 89.7823 12.048C90.2936 12.4711 90.9482 12.681 91.6102 12.634H94.1262V8.12878H91.6854C91.0138 8.08229 90.3484 8.28306 89.8145 8.69327H89.8092ZM96.9702 5.78477V18.1984H94.1316V14.9028H91.508L89.3092 18.1984H86.277L88.8683 14.435C88.0781 14.1324 87.4016 13.5912 86.9329 12.8867C86.4702 12.1386 86.2366 11.2714 86.2609 10.3921C86.2387 9.52204 86.4663 8.66383 86.9168 7.9191C87.3664 7.21171 88.013 6.65112 88.7769 6.30625C89.6731 5.92386 90.6416 5.74043 91.6156 5.76863L96.9702 5.78477Z" fill="white"/>
    <path d="M111.223 5.78479V18.1984H108.346V13.1125H102.712V18.1984H99.8358V5.78479H102.712V10.6825H108.346V5.78479H111.223Z" fill="white"/>
    <path d="M116.609 17.5909C115.613 17.0605 114.781 16.2687 114.201 15.3006C113.627 14.2933 113.325 13.1538 113.325 11.9943C113.325 10.8348 113.627 9.69527 114.201 8.68791C114.779 7.71862 115.612 6.92648 116.609 6.39766C117.673 5.83957 118.86 5.5568 120.061 5.57512C121.062 5.56058 122.056 5.75274 122.98 6.13961C123.825 6.50003 124.574 7.05224 125.168 7.75246L123.324 9.45671C122.947 8.99429 122.47 8.62309 121.929 8.3708C121.388 8.11852 120.797 7.99171 120.201 7.99978C119.484 7.98608 118.776 8.16031 118.147 8.50514C117.553 8.83351 117.064 9.32143 116.733 9.9137C116.401 10.5492 116.227 11.2557 116.227 11.9728C116.227 12.6898 116.401 13.3963 116.733 14.0318C117.064 14.6241 117.553 15.112 118.147 15.4404C118.777 15.7827 119.484 15.9568 120.201 15.9458C120.799 15.9523 121.391 15.8231 121.932 15.568C122.473 15.3128 122.949 14.9384 123.324 14.4727L125.168 16.1769C124.58 16.8959 123.825 17.4605 122.969 17.822C122.045 18.2127 121.049 18.4067 120.045 18.3919C118.849 18.4089 117.668 18.1261 116.609 17.5694" fill="white"/>
    <path d="M23.4133 0.00536503V0H17.6984L7.14496 24.01H12.8652L23.4133 0.00536503Z" fill="white"/>
    <path d="M16.263 0.00536503V0H10.5481L0 24.0047H5.71488L16.263 0.00536503Z" fill="white"/>
    <path d="M24.123 1.6236L21.279 8.09653L24.1552 14.6447H18.4027L16.5479 18.8596H26.0046L28.2626 24.0047H33.9614L24.123 1.6236Z" fill="white"/>
</svg>
