<svg width="97" height="19" viewBox="0 0 97 19" fill="none" xmlns="http://www.w3.org/2000/svg">
    <path d="M92.9609 15.0946H96.44V0.340527H92.9609V5.9734H82.5373V0.326721H79.0674V15.0946H82.5373V9.44333H92.9609V15.0946Z" fill="white"/>
    <path d="M34.3357 0.377343L23.9121 10.3177V0.326721H20.4422V15.0946H23.8707L23.9121 15.067L34.3357 5.07601V15.0946H37.8194V0.326721H34.4139L34.3357 0.377343Z" fill="white"/>
    <path d="M9.97718 11.6247H3.46992V3.80124H9.97718C10.4909 3.80124 10.9995 3.90243 11.4741 4.09901C11.9487 4.29559 12.38 4.58374 12.7432 4.94697C13.1064 5.31021 13.3946 5.74142 13.5911 6.21601C13.7877 6.69061 13.8889 7.19927 13.8889 7.71296C13.8889 8.22666 13.7877 8.73532 13.5911 9.20991C13.3946 9.68451 13.1064 10.1157 12.7432 10.479C12.38 10.8422 11.9487 11.1304 11.4741 11.3269C10.9995 11.5235 10.4909 11.6247 9.97718 11.6247ZM0 0.326721V18.5784H3.46992V15.1084H10.1107C12.0708 15.1084 13.9507 14.3297 15.3368 12.9437C16.7228 11.5576 17.5015 9.67775 17.5015 7.71757C17.5015 5.7574 16.7228 3.8775 15.3368 2.49145C13.9507 1.10539 12.0708 0.326721 10.1107 0.326721H0Z" fill="white"/>
    <path d="M40.7279 7.70842C40.7267 9.66504 41.5009 11.5424 42.8809 12.9294C44.261 14.3164 46.1345 15.0999 48.0911 15.1084H57.3274V11.6247H48.2384C47.7247 11.6247 47.2161 11.5236 46.7415 11.327C46.2669 11.1304 45.8356 10.8422 45.4724 10.479C45.1092 10.1158 44.821 9.68454 44.6245 9.20994C44.4279 8.73535 44.3267 8.22669 44.3267 7.71299C44.3267 7.1993 44.4279 6.69064 44.6245 6.21604C44.821 5.74145 45.1092 5.31024 45.4724 4.947C45.8356 4.58377 46.2669 4.29562 46.7415 4.09904C47.2161 3.90246 47.7247 3.80127 48.2384 3.80127H57.3458V0.317566H48.1095C46.1589 0.32484 44.2903 1.10293 42.911 2.48224C41.5317 3.86154 40.7536 5.73019 40.7463 7.6808L40.7279 7.70842Z" fill="white"/>
    <path d="M68.2388 0L59.5226 15.1084H76.9551L68.2388 0Z" fill="white"/>
</svg>
