<svg width="94" height="45" viewBox="0 0 94 45" fill="none" xmlns="http://www.w3.org/2000/svg">
    <path d="M83.6988 36.0826L80.3868 32.7707L77.0666 36.0826L80.3868 43.0121L83.6988 36.0826Z" fill="white"/>
    <path d="M80.3703 13.7167C79.0984 13.7167 78.066 14.7491 78.066 16.021C78.066 17.2929 79.0984 18.3253 80.3703 18.3253C81.6422 18.3253 82.6746 17.2929 82.6746 16.021C82.6746 14.7491 81.6422 13.7167 80.3703 13.7167Z" fill="white"/>
    <path d="M83.3436 25.4943L80.3868 22.5292L77.43 25.4943C77.2814 25.0813 75.2991 19.7211 75.2991 16.2274C75.2991 11.5114 80.0317 8.86849 80.3868 8.67027C80.742 8.86023 85.4745 11.5114 85.4745 16.2274C85.4745 19.7293 83.4923 25.0896 83.3436 25.4943ZM80.3868 3.36786C79.6848 3.73126 70.5088 8.57942 70.5088 16.3265C70.5088 22.9504 75.9103 33.0019 75.9103 33.0019L80.3868 28.5171L84.8633 33.0019C84.8633 33.0019 90.2648 22.9504 90.2648 16.3265C90.2648 8.57942 81.0888 3.73126 80.3868 3.36786Z" fill="white"/>
    <path d="M90.2669 -9.74761e-06L86.8907 3.375L90.2657 6.75119L93.6419 3.37618L90.2669 -9.74761e-06Z" fill="white"/>
    <path d="M58.3678 6.57245C58.3182 7.28274 58.0374 7.62137 57.5418 7.62137C56.9802 7.62137 56.6746 7.27448 56.6251 6.57245H53.7591C53.8417 8.67855 55.0558 10.0909 57.5418 10.0909C59.8379 10.0909 61.1511 8.63725 61.242 6.57245H58.376H58.3678Z" fill="white"/>
    <path d="M52.4459 20.9187V11.0407H55.7579C55.7579 11.0407 55.7579 15.3025 55.7579 15.6411C55.7579 15.9797 55.6835 16.3596 55.6835 16.3596H55.8239L59.4332 11.0407H62.6048V20.9187H59.2928V16.277C59.2928 15.9467 59.3671 15.6328 59.3671 15.6328H59.2267L55.6175 20.9187H52.4459Z" fill="white"/>
    <path d="M45.6073 18.1105C46.8131 18.1105 47.606 17.1773 47.606 16.0044C47.606 14.8316 46.8049 13.8653 45.6073 13.8653C44.4097 13.8653 43.6086 14.7986 43.6086 16.0044C43.6086 17.2103 44.4428 18.1105 45.6073 18.1105ZM45.6073 10.8011C48.7541 10.8011 51.0997 13.0229 51.0997 16.0044C51.0997 18.986 48.7541 21.183 45.6073 21.183C42.4605 21.183 40.148 18.9612 40.148 16.0044C40.148 13.0476 42.4936 10.8011 45.6073 10.8011Z" fill="white"/>
    <path d="M36.1753 11.0407C36.1753 11.0407 33.4084 14.6417 33.2928 14.7739C33.1524 14.9391 33.1441 15.0299 33.1441 15.0299H33.0037C33.0037 15.0299 32.979 14.9308 32.8468 14.7739C32.6486 14.5344 29.7827 11.0407 29.7827 11.0407H27.1727V20.9187H30.3691V16.7726C30.3691 16.3266 30.2947 16.054 30.2947 16.054H30.4351L33.0037 19.0026H33.1441L35.5228 16.054H35.6632C35.6632 16.054 35.5889 16.3266 35.5889 16.7726V20.9187H38.7852V11.0407H36.167H36.1753Z" fill="white"/>
    <path d="M5.17852 31.3584C6.12007 31.3584 6.91295 31.028 7.50762 30.392C8.1188 29.7561 8.43265 28.9632 8.43265 28.0134C8.43265 26.0147 7.2681 24.6519 5.26937 24.6519C4.3939 24.6519 3.64231 24.8914 3.03113 25.3952C2.41995 25.899 2.0235 26.4937 1.86658 27.1792C1.86658 29.7065 3.22935 31.3584 5.18678 31.3584H5.17852ZM9.29986 18.5649C8.94472 19.0521 8.53176 19.3825 8.02794 19.556C7.52413 19.7294 6.90469 19.8863 6.17788 19.9937C5.45107 20.1011 4.81511 20.2993 4.26175 20.5471C2.76683 21.2326 1.93265 22.8101 1.75921 25.3209H1.80051C2.43646 23.9333 4.03875 23.0166 5.71537 23.0166C8.53176 23.0166 10.3075 24.9492 10.3075 27.939C10.3075 29.3431 9.82019 30.5572 8.87864 31.5401C7.93709 32.5312 6.69821 33.0102 5.22808 33.0102C3.62579 33.0102 2.34561 32.4651 1.40406 31.3584C0.462515 30.2599 0 28.765 0 26.8488C0 22.5623 1.23062 19.9028 3.66709 18.8704C4.26175 18.6062 4.92248 18.4327 5.59974 18.3171C6.98728 18.0776 7.75539 17.9454 8.35005 17.1773L9.29986 18.5649Z" fill="white"/>
    <path d="M13.5368 32.7706H11.7859V22.8926H13.5368V30.2516L19.244 22.8926H21.0032V32.7706H19.244V25.42L13.5368 32.7706Z" fill="white"/>
    <path d="M24.0012 32.6385C23.1836 32.3742 22.6137 32.0438 22.2833 31.6721L23.1836 30.3507C23.9764 30.9866 25.2071 31.4244 26.1073 31.4244C27.627 31.4244 28.7007 30.7636 28.7007 29.7973C28.7007 28.9796 27.9739 28.5254 26.7681 28.5254H25.0997V27.0965H26.6607C27.6518 27.0965 28.3786 26.4853 28.3786 25.6925C28.3786 24.8087 27.5609 24.2636 26.2642 24.2636C25.2071 24.2636 24.2242 24.6353 23.2992 25.3621L22.6219 23.9993C23.4148 23.1817 24.951 22.6779 26.5368 22.6779C28.9155 22.6779 30.2534 23.6855 30.2534 25.3373C30.2534 26.4771 29.6836 27.2535 28.519 27.6664V27.7077C29.8405 27.8646 30.5838 28.831 30.5838 30.0368C30.5838 31.8621 28.8659 33.0019 26.3881 33.0019C25.62 33.0019 24.8271 32.8697 24.0095 32.6302" fill="white"/>
    <path d="M39.5285 32.7706V28.5997H34.0361V32.7706H32.2852V22.8926H34.0361V26.9562H39.5285V22.8926H41.2877V32.7706H39.5285Z" fill="white"/>
    <path d="M44.7483 26.9644H50.7528C50.6619 25.3126 49.5882 24.3297 47.8951 24.3297C46.202 24.3297 44.9466 25.4034 44.7483 26.9644ZM51.8925 31.7135C50.9427 32.5724 49.6956 33.0102 48.1759 33.0102C46.5736 33.0102 45.2934 32.5476 44.3271 31.6061C43.3608 30.6645 42.8735 29.4091 42.8735 27.8482C42.8735 26.2872 43.336 25.1226 44.2363 24.1563C45.1365 23.1652 46.3919 22.6862 47.9694 22.6862C49.2661 22.6862 50.3646 23.0991 51.2483 23.9581C52.1321 24.7923 52.5698 25.8742 52.5698 27.2122C52.5698 27.6747 52.5285 28.0712 52.4624 28.4015H44.8557C45.0126 30.2516 46.3506 31.3666 48.3081 31.3666C49.6047 31.3666 50.6124 31.0114 51.3392 30.3342L51.8925 31.7217V31.7135Z" fill="white"/>
    <path d="M62.9434 31.3583C62.1257 32.4155 60.6969 33.0102 59.1359 33.0102C57.5749 33.0102 56.2782 32.5476 55.2871 31.6061C54.3208 30.6563 53.8335 29.4091 53.8335 27.8482C53.8335 26.3945 54.3125 25.1639 55.2623 24.1811C56.2039 23.19 57.418 22.6862 58.8468 22.6862C60.5812 22.6862 61.8779 23.1239 62.7369 23.9829L61.9275 25.3704C61.1842 24.6849 60.2344 24.338 59.0946 24.338C58.1695 24.338 57.3767 24.6684 56.6994 25.3456C56.0387 26.0064 55.7083 26.8405 55.7083 27.8482C55.7083 28.8558 56.0387 29.7643 56.7159 30.4003C57.4014 31.0362 58.2521 31.3666 59.268 31.3666C60.4078 31.3666 61.3576 30.9454 62.1009 30.0947L62.9351 31.3666L62.9434 31.3583Z" fill="white"/>
    <path d="M3.34496 43.6976H2.92374L2.82463 42.6404H0.289052V38.4778H0.883715V42.1036H2.263V38.4778H2.85766V42.1036H3.34496V43.6976Z" fill="white"/>
    <path d="M5.84749 40.1296C5.85575 39.7167 5.79794 39.4111 5.67405 39.2129C5.55016 39.0146 5.36846 38.9238 5.14546 38.9238C4.88943 38.9238 4.6912 39.0229 4.53428 39.2129C4.38561 39.4111 4.29476 39.7167 4.26998 40.1296H5.84749ZM6.31827 42.3596C6.18612 42.4835 6.01268 42.5744 5.8062 42.6404C5.59972 42.7065 5.38498 42.7395 5.15372 42.7395C4.88943 42.7395 4.66643 42.69 4.47646 42.5826C4.2865 42.4835 4.12958 42.3348 4.00569 42.1449C3.8818 41.9549 3.79095 41.7237 3.73314 41.4594C3.67532 41.1951 3.64229 40.8895 3.64229 40.5591C3.64229 39.8488 3.77443 39.3037 4.03047 38.932C4.29476 38.5604 4.65817 38.3704 5.1372 38.3704C5.29413 38.3704 5.45105 38.3869 5.59972 38.4282C5.75664 38.4695 5.88879 38.5439 6.01268 38.6595C6.13656 38.7751 6.23568 38.9403 6.31001 39.155C6.38434 39.3698 6.42564 39.6423 6.42564 39.981C6.42564 40.0801 6.42564 40.1792 6.40912 40.2866C6.40086 40.3939 6.3926 40.5096 6.37608 40.6252H4.26173C4.26173 40.8647 4.27824 41.0794 4.31954 41.2777C4.36084 41.4759 4.41865 41.6328 4.50124 41.7732C4.58383 41.9136 4.6912 42.0127 4.82335 42.0871C4.9555 42.1614 5.11242 42.2027 5.31064 42.2027C5.45931 42.2027 5.60798 42.1779 5.75664 42.1201C5.90531 42.0623 6.01268 41.9962 6.09527 41.9219L6.31001 42.3596H6.31827Z" fill="white"/>
    <path d="M9.28336 40.7821H7.838V42.6404H7.24334V38.4778H7.838V40.2453H9.28336V38.4778H9.87802V42.6404H9.28336V40.7821Z" fill="white"/>
    <path d="M13.1569 39.0146H12.1328V42.6404H11.5381V39.0146H10.5139V38.4778H13.1569V39.0146Z" fill="white"/>
    <path d="M14.3214 41.9797C14.3958 42.0458 14.4866 42.1036 14.5857 42.1366C14.6848 42.1779 14.8087 42.1944 14.9739 42.1944C15.2713 42.1944 15.5025 42.0458 15.676 41.7402C15.8494 41.4428 15.932 41.0134 15.932 40.46C15.932 40.2287 15.9155 40.014 15.8824 39.824C15.8494 39.6341 15.7998 39.4689 15.7338 39.3368C15.6677 39.2046 15.5851 39.0972 15.4777 39.0229C15.3786 38.9486 15.2465 38.9073 15.0978 38.9073C14.6931 38.9073 14.4288 39.155 14.3132 39.6506V41.9714L14.3214 41.9797ZM13.7185 38.4695H14.1397L14.2306 38.9238H14.2636C14.4701 38.5604 14.7922 38.3704 15.23 38.3704C15.6677 38.3704 15.9981 38.5356 16.2128 38.866C16.4358 39.1963 16.5432 39.7332 16.5432 40.4765C16.5432 40.8234 16.5101 41.1373 16.4358 41.4181C16.3615 41.6989 16.2624 41.9384 16.1302 42.1366C15.9981 42.3348 15.8329 42.4835 15.6429 42.5826C15.453 42.6817 15.2382 42.7395 15.007 42.7395C14.8418 42.7395 14.7179 42.7313 14.627 42.7148C14.5362 42.6982 14.4288 42.6569 14.3214 42.5909V44.3088H13.7185V38.4778V38.4695Z" fill="white"/>
    <path d="M19.7477 40.5591C19.7477 40.8069 19.7642 41.0299 19.789 41.2281C19.8221 41.4263 19.8716 41.5998 19.9377 41.7402C20.0038 41.8806 20.0946 41.9962 20.2102 42.0788C20.3259 42.1614 20.458 42.2027 20.6067 42.2027C20.8958 42.2027 21.1105 42.0705 21.2592 41.8145C21.4078 41.5585 21.4739 41.1373 21.4739 40.5591C21.4739 40.3196 21.4574 40.0966 21.4326 39.8984C21.3996 39.6919 21.35 39.5185 21.2839 39.378C21.2179 39.2376 21.127 39.122 21.0114 39.0394C20.8958 38.9568 20.7636 38.9155 20.6149 38.9155C20.3341 38.9155 20.1194 39.0477 19.9707 39.3037C19.8221 39.568 19.7477 39.981 19.7477 40.5509V40.5591ZM19.12 40.5509C19.12 39.7993 19.2522 39.2542 19.5082 38.899C19.7642 38.5439 20.1359 38.3704 20.6149 38.3704C21.127 38.3704 21.4987 38.5521 21.7465 38.9155C21.986 39.2789 22.1099 39.824 22.1099 40.5591C22.1099 41.2942 21.9777 41.8641 21.7217 42.2192C21.4574 42.5661 21.094 42.7478 20.6232 42.7478C20.1111 42.7478 19.7395 42.5661 19.4917 42.211C19.2522 41.8475 19.1283 41.3024 19.1283 40.5674" fill="white"/>
    <path d="M23.7122 40.7656H23.4066V42.6404H22.8036V38.4778H23.4066V40.3609L23.6874 40.2453L24.7033 38.4778H25.3475L24.3564 40.1544L24.0673 40.427L24.4224 40.7573L25.4879 42.6404H24.7693L23.7122 40.7656Z" fill="white"/>
    <path d="M27.8583 40.7408C27.8005 40.7408 27.7509 40.7325 27.6931 40.7325C27.6353 40.7325 27.5857 40.7325 27.5279 40.7325C27.3958 40.7325 27.2636 40.7408 27.1397 40.7656C27.0158 40.7903 26.9002 40.8234 26.8011 40.8812C26.702 40.939 26.6277 41.0133 26.5698 41.1042C26.512 41.195 26.4873 41.3189 26.4873 41.4593C26.4873 41.6823 26.5451 41.8558 26.6524 41.9797C26.7598 42.1035 26.9002 42.1614 27.0654 42.1614C27.2967 42.1614 27.4701 42.1035 27.6022 41.9962C27.7261 41.8805 27.817 41.7649 27.8665 41.6328V40.749L27.8583 40.7408ZM26.066 38.7255C26.223 38.6264 26.4212 38.5521 26.6524 38.4943C26.8837 38.4365 27.1232 38.4117 27.3792 38.4117C27.6105 38.4117 27.8005 38.4447 27.9409 38.5191C28.0813 38.5851 28.1969 38.6842 28.2712 38.7999C28.3538 38.9155 28.4034 39.0559 28.4282 39.2046C28.4529 39.3615 28.4695 39.5184 28.4695 39.6836C28.4695 40.014 28.4695 40.3443 28.4447 40.6582C28.4282 40.972 28.4199 41.2776 28.4199 41.5584C28.4199 41.7732 28.4199 41.9631 28.4447 42.1448C28.4612 42.3265 28.486 42.5 28.5273 42.6569H28.0565L27.9078 42.1614H27.8748C27.7922 42.31 27.6683 42.4339 27.5114 42.533C27.3545 42.6404 27.1397 42.6899 26.8672 42.6899C26.5698 42.6899 26.3221 42.5826 26.1321 42.3761C25.9421 42.1696 25.8513 41.8805 25.8513 41.5171C25.8513 41.2776 25.8926 41.0794 25.9752 40.9142C26.0578 40.749 26.1651 40.6251 26.3138 40.526C26.4625 40.4269 26.6359 40.3526 26.8341 40.3113C27.0324 40.27 27.2636 40.2452 27.5114 40.2452H27.6766C27.7344 40.2452 27.7922 40.2452 27.85 40.2535C27.8665 40.08 27.8748 39.9314 27.8748 39.791C27.8748 39.4771 27.8252 39.2541 27.7344 39.122C27.6435 38.9981 27.4701 38.932 27.2223 38.932C27.0654 38.932 26.9002 38.9568 26.7185 39.0063C26.5368 39.0559 26.3881 39.1137 26.2643 39.188L26.066 38.709V38.7255Z" fill="white"/>
    <path d="M29.7496 40.7573V40.2617H30.2039C30.2782 40.2617 30.3608 40.2452 30.4351 40.2039C30.5095 40.1709 30.5755 40.1213 30.6334 40.0553C30.6912 39.9975 30.7407 39.9231 30.7738 39.8405C30.8068 39.7579 30.8233 39.6753 30.8233 39.5845C30.8233 39.3698 30.7655 39.2128 30.6499 39.1055C30.5343 39.0063 30.3608 38.9568 30.1296 38.9568C29.9561 38.9568 29.7992 38.9816 29.6588 39.0311C29.5184 39.0807 29.411 39.1302 29.3284 39.188L29.155 38.709C29.2954 38.6182 29.4523 38.5521 29.6423 38.4943C29.824 38.4365 30.0387 38.4117 30.2782 38.4117C30.6416 38.4117 30.9307 38.4943 31.1207 38.6677C31.3189 38.8329 31.418 39.0889 31.418 39.4276C31.418 39.634 31.3684 39.8323 31.2611 40.0057C31.1537 40.1792 31.0133 40.3113 30.8233 40.3856V40.4187C31.0794 40.4765 31.2611 40.6004 31.3767 40.7656C31.4841 40.939 31.5419 41.1703 31.5419 41.4511C31.5419 41.798 31.4262 42.0953 31.195 42.3348C30.9637 42.5743 30.6003 42.6899 30.1213 42.6899C29.8983 42.6899 29.7083 42.6734 29.5597 42.6321C29.4027 42.5908 29.2706 42.533 29.1467 42.467L29.3036 41.9549C29.411 42.021 29.5349 42.0705 29.6753 42.1035C29.8157 42.1366 29.9726 42.1531 30.1296 42.1531C30.4021 42.1531 30.6086 42.087 30.7407 41.9549C30.8729 41.8227 30.9472 41.641 30.9472 41.4015C30.9472 41.2033 30.8811 41.0381 30.7573 40.9225C30.6334 40.8069 30.4186 40.749 30.113 40.749H29.7414L29.7496 40.7573Z" fill="white"/>
    <path d="M34.2096 40.7408C34.1518 40.7408 34.1022 40.7325 34.0444 40.7325C33.9866 40.7325 33.937 40.7325 33.8792 40.7325C33.7471 40.7325 33.6149 40.7408 33.491 40.7656C33.3672 40.7903 33.2515 40.8234 33.1524 40.8812C33.0533 40.939 32.979 41.0133 32.9212 41.1042C32.8633 41.195 32.8386 41.3189 32.8386 41.4593C32.8386 41.6823 32.8964 41.8558 33.0038 41.9797C33.1111 42.1035 33.2515 42.1614 33.4167 42.1614C33.648 42.1614 33.8214 42.1035 33.9536 41.9962C34.0775 41.8805 34.1683 41.7649 34.2179 41.6328V40.749L34.2096 40.7408ZM32.4174 38.7255C32.5743 38.6264 32.7725 38.5521 33.0038 38.4943C33.235 38.4365 33.4745 38.4117 33.7306 38.4117C33.9618 38.4117 34.1518 38.4447 34.2922 38.5191C34.4326 38.5851 34.5482 38.6842 34.6226 38.7999C34.7052 38.9155 34.7547 39.0559 34.7795 39.2046C34.8043 39.3615 34.8125 39.5184 34.8125 39.6836C34.8125 40.014 34.8125 40.3443 34.7877 40.6582C34.7712 40.972 34.763 41.2776 34.763 41.5584C34.763 41.7732 34.763 41.9631 34.7877 42.1448C34.8043 42.3265 34.829 42.5 34.8703 42.6569H34.3996L34.2509 42.1614H34.2179C34.1353 42.31 34.0114 42.4339 33.8545 42.533C33.6975 42.6404 33.4828 42.6899 33.2102 42.6899C32.9129 42.6899 32.6651 42.5826 32.4752 42.3761C32.2852 42.1696 32.1944 41.8805 32.1944 41.5171C32.1944 41.2776 32.2356 41.0794 32.3182 40.9142C32.4008 40.749 32.5082 40.6251 32.6569 40.526C32.8055 40.4269 32.979 40.3526 33.1772 40.3113C33.3754 40.27 33.6067 40.2452 33.8545 40.2452H34.0196C34.0775 40.2452 34.1353 40.2452 34.1931 40.2535C34.2096 40.08 34.2179 39.9314 34.2179 39.791C34.2179 39.4771 34.1683 39.2541 34.0775 39.122C33.9866 38.9981 33.8132 38.932 33.5654 38.932C33.4085 38.932 33.2433 38.9568 33.0616 39.0063C32.8799 39.0559 32.7312 39.1137 32.6073 39.188L32.4091 38.709L32.4174 38.7255Z" fill="white"/>
    <path d="M37.8354 40.7821H36.3901V42.6404H35.7871V38.4778H36.3901V40.2453H37.8354V38.4778H38.4301V42.6404H37.8354V40.7821Z" fill="white"/>
    <path d="M41.4859 40.2453L41.5355 39.6093H41.5025L41.2134 40.3113L39.8011 42.6404H39.4129V38.4778H40.0076V40.9473L39.958 41.5585H39.991L40.2718 40.873L41.6924 38.4778H42.0806V42.6404H41.4859V40.2453Z" fill="white"/>
    <path d="M44.8309 40.5343V38.9898C44.7731 38.965 44.707 38.9402 44.641 38.932C44.5666 38.9237 44.5006 38.9154 44.451 38.9154C44.1867 38.9154 43.9802 38.9815 43.8398 39.1219C43.6994 39.2623 43.6251 39.4688 43.6251 39.7579C43.6251 40.0139 43.7077 40.2121 43.8646 40.3525C44.0215 40.493 44.2363 40.559 44.5088 40.5508L44.8309 40.5343ZM44.8309 40.9142L44.3189 41.0133L43.4764 42.6403H42.7661L43.5425 41.2032L43.8068 40.9059C43.5755 40.8646 43.3856 40.749 43.2286 40.559C43.0717 40.3691 42.9891 40.113 42.9891 39.7909C42.9891 39.2871 43.1213 38.932 43.3938 38.709C43.6664 38.486 44.0298 38.3786 44.5006 38.3786C44.674 38.3786 44.8392 38.3869 44.9878 38.4116C45.1448 38.4364 45.2852 38.4695 45.4256 38.5025V42.6403H44.8227V40.9142H44.8309Z" fill="white"/>
    <path d="M48.9606 41.1703L49.134 41.9797H49.1753L49.2992 41.1703L49.9352 38.4778H50.5463L49.5552 42.2192C49.4809 42.5165 49.3983 42.7973 49.324 43.0616C49.2496 43.3259 49.1588 43.5489 49.0679 43.7389C48.9771 43.9289 48.878 44.0775 48.7623 44.1931C48.6467 44.3005 48.5146 44.3583 48.3576 44.3583C48.2007 44.3583 48.0686 44.3336 47.9529 44.284L48.0521 43.7141C48.1346 43.7389 48.209 43.7472 48.2833 43.7306C48.3576 43.7141 48.432 43.6646 48.5063 43.5902C48.5724 43.5159 48.6385 43.4003 48.6963 43.2433C48.7541 43.0947 48.8036 42.8965 48.8532 42.6487L47.5069 38.486H48.1925L48.9771 41.1785L48.9606 41.1703Z" fill="white"/>
    <path d="M53.1975 42.434C53.0571 42.5413 52.9002 42.6157 52.7185 42.6652C52.5451 42.7148 52.3551 42.7395 52.1569 42.7395C51.8926 42.7395 51.6696 42.69 51.4796 42.5826C51.2979 42.4835 51.1492 42.3348 51.0336 42.1449C50.918 41.9549 50.8354 41.7237 50.7858 41.4511C50.7363 41.1786 50.7033 40.8812 50.7033 40.5591C50.7033 39.8488 50.8271 39.3037 51.0832 38.932C51.3392 38.5604 51.7026 38.3704 52.1734 38.3704C52.3881 38.3704 52.5781 38.3869 52.735 38.4282C52.8919 38.4695 53.0241 38.5191 53.1315 38.5769L52.9663 39.1055C52.7433 38.9816 52.5038 38.9155 52.2395 38.9155C51.9421 38.9155 51.7109 39.0477 51.5622 39.312C51.4053 39.5763 51.331 39.9892 51.331 40.5591C51.331 40.7904 51.3475 40.9968 51.3805 41.2033C51.4135 41.4015 51.4714 41.575 51.5457 41.7237C51.62 41.8723 51.7191 41.988 51.843 42.0705C51.9669 42.1531 52.1156 42.2027 52.2973 42.2027C52.4459 42.2027 52.5781 42.1779 52.702 42.1284C52.8259 42.0788 52.925 42.021 53.0076 41.9549L53.181 42.434H53.1975Z" fill="white"/>
    <path d="M55.89 39.0146H54.9815C54.965 39.4854 54.9402 39.9396 54.9154 40.3856C54.8906 40.8234 54.8411 41.2198 54.7667 41.5584C54.6924 41.897 54.6016 42.1696 54.4694 42.3678C54.3455 42.566 54.1721 42.6734 53.9656 42.6734C53.8747 42.6734 53.7921 42.6734 53.7261 42.6569C53.66 42.6486 53.6022 42.6239 53.5444 42.5991L53.6352 42.0788C53.7509 42.1118 53.8582 42.1035 53.9491 42.054C54.0399 42.0044 54.1225 41.864 54.1886 41.6245C54.2547 41.385 54.3125 41.0133 54.3538 40.5095C54.3951 40.014 54.4281 39.3284 54.4446 38.4695H56.5012V42.6321H55.8983V39.0063L55.89 39.0146Z" fill="white"/>
    <path d="M58.5247 41.1703L58.6981 41.9797H58.7394L58.8633 41.1703L59.4993 38.4778H60.1105L59.1193 42.2192C59.045 42.5165 58.9624 42.7973 58.8881 43.0616C58.8138 43.3259 58.7229 43.5489 58.6321 43.7389C58.5412 43.9289 58.4421 44.0775 58.3265 44.1931C58.2108 44.3005 58.0787 44.3583 57.9218 44.3583C57.7648 44.3583 57.6327 44.3336 57.5171 44.284L57.6162 43.7141C57.6988 43.7389 57.7731 43.7472 57.8474 43.7306C57.9218 43.7141 57.9961 43.6646 58.0704 43.5902C58.1365 43.5159 58.2026 43.4003 58.2604 43.2433C58.3182 43.0947 58.3678 42.8965 58.4173 42.6487L57.0711 38.486H57.7566L58.5412 41.1785L58.5247 41.1703Z" fill="white"/>
    <path d="M62.7286 39.0146H61.3493V42.6404H60.7464V38.4778H62.7286V39.0146Z" fill="white"/>
</svg>
