<svg xmlns="http://www.w3.org/2000/svg" display="none">

    <symbol id="location" viewBox="0 0 15 24">
        <path d="M7.51699 0H7.48289C3.35675 0 0 3.37076 0 7.51393C0 10.2298 1.23129 13.814 3.65964 18.1673C5.46001 21.3947 7.28562 23.8665 7.30391 23.891C7.35473 23.9596 7.43482 24 7.51969 24C7.5221 24 7.52457 24 7.52698 23.9999C7.61454 23.9975 7.69536 23.9524 7.74393 23.8791C7.76194 23.8518 9.57454 21.1022 11.3627 17.7391C13.7762 13.2 15 9.75964 15 7.51393C14.9998 3.37071 11.643 0 7.51699 0ZM10.971 7.69755C10.971 9.62019 9.4139 11.1843 7.49989 11.1843C5.58593 11.1843 4.02882 9.62014 4.02882 7.69755C4.02882 5.77497 5.58593 4.21083 7.49989 4.21083C9.4139 4.21083 10.971 5.77497 10.971 7.69755Z"/>
    </symbol>

    <symbol id="phone" viewBox="0 0 18 19">
        <path d="M17.528 13.9441L15.0108 11.2926C14.1117 10.3456 12.5834 10.7244 12.2238 11.9554C11.9541 12.8077 11.0551 13.2812 10.246 13.0918C8.44795 12.6183 6.02061 10.1562 5.57111 8.16758C5.3014 7.31527 5.84081 6.36831 6.64992 6.08425C7.81864 5.70547 8.17825 4.09563 7.27923 3.14866L4.76199 0.497157C4.04278 -0.165719 2.96397 -0.165719 2.33466 0.497157L0.626529 2.29639C-1.0816 4.19032 0.806332 9.20924 5.0317 13.66C9.25706 18.1107 14.0218 20.1941 15.8199 18.3001L17.528 16.5009C18.1573 15.7433 18.1573 14.6069 17.528 13.9441Z"/>
    </symbol>

    <symbol id="link" viewBox="0 0 31 28">
        <path d="M13.6285 1.39941H7.32961C4.20639 1.39941 1.67371 3.66682 1.67371 6.46289V21.2597C1.67371 24.0558 4.20639 26.3232 7.32961 26.3232H23.8577C26.9809 26.3232 29.5136 24.0558 29.5136 21.2597V16.0318"
              stroke-width="2" stroke-miterlimit="10"/>
        <path d="M29.5136 10.2047V1.39941H19.993" stroke-width="2" stroke-linejoin="round"/>
        <path d="M29.5136 1.39941L15.1573 14.2519" stroke-width="2" stroke-miterlimit="10"/>
    </symbol>

    <symbol id="close" viewBox="0 0 16 16">
        <path fill-rule="evenodd" clip-rule="evenodd"
              d="M16.0001 1.88236L14.1177 0L8.00003 6.11768L1.88236 7.95247e-06L0 1.88237L6.11767 8.00004L0 14.1177L1.88236 16.0001L8.00003 9.8824L14.1177 16.0001L16.0001 14.1177L9.88239 8.00004L16.0001 1.88236Z"/>
    </symbol>

</svg>